<?xml version="1.0" standalone="no"?>
<!DOCTYPE svg PUBLIC "-//W3C//DTD SVG 20010904//EN"
 "http://www.w3.org/TR/2001/REC-SVG-20010904/DTD/svg10.dtd">
<svg version="1.0" xmlns="http://www.w3.org/2000/svg"
 width="503.000000pt" height="503.000000pt" viewBox="0 0 503.000000 503.000000"
 preserveAspectRatio="xMidYMid meet">
<metadata>
Created by potrace 1.14, written by Peter Selinger 2001-2017
</metadata>
<g transform="translate(0.000000,503.000000) scale(0.100000,-0.100000)"
fill="#000000" stroke="none">
<path d="M770 4465 c0 -10 -730 -3718 -736 -3737 -5 -17 7 -18 148 -18 l154 0
188 958 c104 526 240 1216 302 1532 63 316 131 662 151 768 l37 192 1351 0
c875 0 1373 -4 1415 -10 433 -69 731 -404 757 -851 7 -124 -1 -183 -67 -519
-27 -135 -74 -373 -106 -530 -64 -325 -74 -435 -50 -550 39 -187 164 -350 328
-429 90 -44 192 -71 269 -71 l46 0 27 134 c14 74 26 141 26 149 0 9 -23 18
-67 26 -191 34 -318 172 -330 359 -4 69 7 136 106 637 61 308 116 601 122 650
14 108 6 302 -15 403 -98 460 -414 774 -891 885 -89 21 -105 21 -1627 24 -846
2 -1538 1 -1538 -2z"/>
<path d="M2775 4008 c-19 -54 -158 -814 -165 -901 -34 -408 132 -796 438
-1027 134 -101 323 -182 501 -215 47 -8 86 -17 88 -18 3 -3 -26 -149 -157
-813 -33 -165 -60 -306 -60 -312 0 -9 43 -12 150 -12 147 0 150 0 155 23 3 12
19 94 35 182 17 88 33 166 36 174 2 8 24 -15 55 -58 147 -210 385 -370 646
-437 82 -21 117 -24 218 -22 l120 3 20 110 c12 61 24 124 28 141 l6 31 -92 6
c-216 15 -418 102 -571 246 -115 110 -203 265 -247 436 -31 122 -31 322 0 475
11 58 21 110 21 116 0 8 -54 13 -162 17 -116 4 -185 12 -241 26 -333 87 -564
316 -653 647 -15 54 -19 105 -19 239 0 164 2 179 49 413 l48 242 248 0 247 0
26 134 c15 73 27 140 27 150 0 15 -35 16 -395 16 -308 0 -397 -3 -400 -12z"/>
<path d="M971 1188 c-50 -255 -91 -466 -91 -471 0 -4 68 -6 152 -5 l152 3 9
45 c4 25 44 226 88 446 43 221 79 411 79 423 0 20 -4 21 -149 21 l-149 0 -91
-462z"/>
<path d="M1905 1628 c-3 -13 -45 -223 -93 -468 l-88 -445 149 -3 c83 -1 151
-1 153 1 3 3 158 781 180 900 l6 37 -151 0 c-148 0 -151 0 -156 -22z"/>
<path d="M2756 1642 c-2 -4 -43 -205 -91 -447 -47 -242 -89 -450 -92 -462 l-5
-23 154 0 153 0 89 453 c49 248 91 460 94 470 4 16 -8 17 -146 17 -83 0 -153
-4 -156 -8z"/>
</g>
</svg>
