<svg width="30" height="30" viewBox="0 0 30 30" fill="none" xmlns="http://www.w3.org/2000/svg">
<path d="M26.7945 4.0746C26.6008 3.90722 26.3649 3.79607 26.1125 3.7532C25.8601 3.71033 25.6008 3.73738 25.3627 3.83141L3.73491 12.3281C3.45218 12.4391 3.21302 12.6388 3.05322 12.8971C2.89341 13.1554 2.82156 13.4586 2.8484 13.7611C2.87524 14.0637 2.99934 14.3494 3.20213 14.5756C3.40492 14.8018 3.67549 14.9562 3.97335 15.0157L9.84377 16.1899V23.4359C9.84083 23.7147 9.92213 23.9879 10.077 24.2197C10.2319 24.4515 10.4532 24.6311 10.7119 24.7351C10.8852 24.8076 11.0711 24.8452 11.2589 24.8457C11.4425 24.8452 11.6242 24.8081 11.7933 24.7368C11.9625 24.6655 12.1158 24.5613 12.2444 24.4302L15.5955 21.0791L20.54 25.4303C20.7948 25.6566 21.1237 25.7817 21.4644 25.7821C21.6126 25.7819 21.7598 25.7586 21.9007 25.7129C22.1331 25.6392 22.3421 25.5058 22.5069 25.3261C22.6716 25.1464 22.7864 24.9266 22.8397 24.6887L27.2476 5.45441C27.3051 5.20496 27.2933 4.94453 27.2135 4.70131C27.1336 4.45809 26.9887 4.24136 26.7945 4.0746ZM3.78223 13.6783C3.77057 13.577 3.7934 13.4748 3.84703 13.3881C3.90066 13.3014 3.98196 13.2353 4.07778 13.2006L23.903 5.41204L10.2038 15.3059L4.1572 14.0965C4.05676 14.0792 3.96511 14.0284 3.89707 13.9525C3.82903 13.8766 3.78857 13.78 3.78223 13.6783ZM11.5814 23.7674C11.5159 23.8329 11.4324 23.8776 11.3414 23.8957C11.2505 23.9137 11.1563 23.9045 11.0706 23.869C10.985 23.8335 10.9118 23.7734 10.8603 23.6964C10.8088 23.6193 10.7813 23.5287 10.7813 23.4359V16.8425L14.8903 20.4585L11.5814 23.7674ZM26.3338 5.24499L21.9259 24.4793C21.9078 24.5584 21.8694 24.6315 21.8145 24.6914C21.7596 24.7512 21.6901 24.7958 21.6129 24.8207C21.5356 24.8456 21.4532 24.85 21.3737 24.8335C21.2942 24.817 21.2203 24.7801 21.1593 24.7265L11.0631 15.8418L26.258 4.86773C26.298 4.92098 26.3256 4.9825 26.3387 5.04777C26.3518 5.11305 26.3501 5.18044 26.3338 5.24499Z" fill="black"/>
</svg>
